<svg width="1600" height="900" viewBox="0 0 1600 900" fill="none" xmlns="http://www.w3.org/2000/svg">
  <defs>
    <linearGradient id="darkGradient" x1="0" y1="0" x2="1600" y2="900" gradientUnits="userSpaceOnUse">
      <stop offset="0%" stop-color="#0f172a"/>
      <stop offset="100%" stop-color="#1e293b"/>
    </linearGradient>
    <linearGradient id="linesGradient" x1="0" y1="0" x2="1600" y2="900" gradientUnits="userSpaceOnUse">
      <stop offset="0%" stop-color="#2563eb" stop-opacity="0.5"/>
      <stop offset="100%" stop-color="#8b5cf6" stop-opacity="0.18"/>
    </linearGradient>
  </defs>
  <rect width="1600" height="900" fill="url(#darkGradient)"/>
  <circle cx="350" cy="220" r="210" fill="#475569" fill-opacity="0.18"/>
  <circle cx="1250" cy="150" r="160" fill="#2563eb" fill-opacity="0.18"/>
  <circle cx="1240" cy="700" r="280" fill="#8b5cf6" fill-opacity="0.14"/>
  <path d="M200 760C280 680 400 620 520 640C650 660 760 760 820 810C900 870 1040 920 1130 860" stroke="#60a5fa" stroke-width="28" stroke-linecap="round" opacity="0.25"/>
  <path d="M1080 120C1160 170 1210 250 1240 330C1270 410 1275 520 1220 600" stroke="#a78bfa" stroke-width="16" stroke-linecap="round" opacity="0.22"/>
  <g opacity="0.6">
    <rect x="140" y="520" width="260" height="180" rx="36" fill="url(#linesGradient)"/>
    <rect x="520" y="180" width="220" height="220" rx="110" fill="url(#linesGradient)"/>
    <rect x="1020" y="360" width="360" height="140" rx="70" fill="url(#linesGradient)"/>
  </g>
  <g opacity="0.55" stroke="#c7d2fe" stroke-width="6">
    <path d="M640 460C640 441.0 650.0 421.5 672 421.5C694.0 421.5 705 441.0 705 460"/>
    <path d="M650 460L680 620"/>
    <path d="M715 620L785 620"/>
  </g>
  <g opacity="0.4" fill="#f8fafc">
    <circle cx="220" cy="170" r="8"/>
    <circle cx="310" cy="230" r="6"/>
    <circle cx="420" cy="140" r="4"/>
    <circle cx="1280" cy="224" r="5"/>
    <circle cx="1230" cy="320" r="7"/>
  </g>
  <path d="M1180 720L1260 620L1320 700" stroke="#93c5fd" stroke-width="14" stroke-linecap="round" opacity="0.32"/>
  <path d="M350 360H750" stroke="#60a5fa" stroke-width="20" stroke-linecap="round" opacity="0.12"/>
</svg>
